<mxfile host="app.diagrams.net" modified="2023-01-24T14:23:34.268Z" agent="5.0 (Macintosh; Intel Mac OS X 10_15_7) AppleWebKit/537.36 (KHTML, like Gecko) Chrome/109.0.0.0 Safari/537.36" etag="josMNpARmyoRXtnpN77F" version="20.8.10" type="github">
  <diagram id="C5RBs43oDa-KdzZeNtuy" name="Page-1">
    <mxGraphModel dx="1026" dy="661" grid="1" gridSize="10" guides="1" tooltips="1" connect="1" arrows="1" fold="1" page="1" pageScale="1" pageWidth="827" pageHeight="1169" math="0" shadow="0">
      <root>
        <mxCell id="WIyWlLk6GJQsqaUBKTNV-0" />
        <mxCell id="WIyWlLk6GJQsqaUBKTNV-1" parent="WIyWlLk6GJQsqaUBKTNV-0" />
        <mxCell id="gi6Sf2nISazvm_jhypKA-24" style="edgeStyle=orthogonalEdgeStyle;rounded=0;orthogonalLoop=1;jettySize=auto;html=1;exitX=1;exitY=0.5;exitDx=0;exitDy=0;entryX=-0.006;entryY=-0.154;entryDx=0;entryDy=0;entryPerimeter=0;" edge="1" parent="WIyWlLk6GJQsqaUBKTNV-1" source="gi6Sf2nISazvm_jhypKA-0" target="gi6Sf2nISazvm_jhypKA-17">
          <mxGeometry relative="1" as="geometry" />
        </mxCell>
        <mxCell id="gi6Sf2nISazvm_jhypKA-25" style="edgeStyle=orthogonalEdgeStyle;rounded=0;orthogonalLoop=1;jettySize=auto;html=1;exitX=0.75;exitY=1;exitDx=0;exitDy=0;entryX=-0.019;entryY=0.808;entryDx=0;entryDy=0;entryPerimeter=0;" edge="1" parent="WIyWlLk6GJQsqaUBKTNV-1" source="gi6Sf2nISazvm_jhypKA-0" target="gi6Sf2nISazvm_jhypKA-9">
          <mxGeometry relative="1" as="geometry" />
        </mxCell>
        <mxCell id="gi6Sf2nISazvm_jhypKA-0" value="TopLevelDesignAids" style="swimlane;fontStyle=1;align=center;verticalAlign=top;childLayout=stackLayout;horizontal=1;startSize=26;horizontalStack=0;resizeParent=1;resizeParentMax=0;resizeLast=0;collapsible=1;marginBottom=0;" vertex="1" parent="WIyWlLk6GJQsqaUBKTNV-1">
          <mxGeometry x="100" y="220" width="160" height="34" as="geometry" />
        </mxCell>
        <mxCell id="gi6Sf2nISazvm_jhypKA-2" value="" style="line;strokeWidth=1;fillColor=none;align=left;verticalAlign=middle;spacingTop=-1;spacingLeft=3;spacingRight=3;rotatable=0;labelPosition=right;points=[];portConstraint=eastwest;strokeColor=inherit;" vertex="1" parent="gi6Sf2nISazvm_jhypKA-0">
          <mxGeometry y="26" width="160" height="8" as="geometry" />
        </mxCell>
        <mxCell id="gi6Sf2nISazvm_jhypKA-4" value="Template" style="swimlane;fontStyle=1;align=center;verticalAlign=top;childLayout=stackLayout;horizontal=1;startSize=26;horizontalStack=0;resizeParent=1;resizeParentMax=0;resizeLast=0;collapsible=1;marginBottom=0;" vertex="1" parent="WIyWlLk6GJQsqaUBKTNV-1">
          <mxGeometry x="390" y="90" width="356" height="113" as="geometry" />
        </mxCell>
        <mxCell id="gi6Sf2nISazvm_jhypKA-6" value="" style="line;strokeWidth=1;fillColor=none;align=left;verticalAlign=middle;spacingTop=-1;spacingLeft=3;spacingRight=3;rotatable=0;labelPosition=right;points=[];portConstraint=eastwest;strokeColor=inherit;" vertex="1" parent="gi6Sf2nISazvm_jhypKA-4">
          <mxGeometry y="26" width="356" height="8" as="geometry" />
        </mxCell>
        <mxCell id="gi6Sf2nISazvm_jhypKA-7" value="+ getData(data1 : string, data2 : string, â€¦)" style="text;strokeColor=none;fillColor=none;align=left;verticalAlign=top;spacingLeft=4;spacingRight=4;overflow=hidden;rotatable=0;points=[[0,0.5],[1,0.5]];portConstraint=eastwest;" vertex="1" parent="gi6Sf2nISazvm_jhypKA-4">
          <mxGeometry y="34" width="356" height="27" as="geometry" />
        </mxCell>
        <mxCell id="gi6Sf2nISazvm_jhypKA-17" value="+ buildStructureData()" style="text;strokeColor=none;fillColor=none;align=left;verticalAlign=top;spacingLeft=4;spacingRight=4;overflow=hidden;rotatable=0;points=[[0,0.5],[1,0.5]];portConstraint=eastwest;" vertex="1" parent="gi6Sf2nISazvm_jhypKA-4">
          <mxGeometry y="61" width="356" height="26" as="geometry" />
        </mxCell>
        <mxCell id="gi6Sf2nISazvm_jhypKA-21" value="+ modifyData(newData : string)" style="text;strokeColor=none;fillColor=none;align=left;verticalAlign=top;spacingLeft=4;spacingRight=4;overflow=hidden;rotatable=0;points=[[0,0.5],[1,0.5]];portConstraint=eastwest;" vertex="1" parent="gi6Sf2nISazvm_jhypKA-4">
          <mxGeometry y="87" width="356" height="26" as="geometry" />
        </mxCell>
        <mxCell id="gi6Sf2nISazvm_jhypKA-8" value="StructureData" style="swimlane;fontStyle=1;align=center;verticalAlign=top;childLayout=stackLayout;horizontal=1;startSize=26;horizontalStack=0;resizeParent=1;resizeParentMax=0;resizeLast=0;collapsible=1;marginBottom=0;" vertex="1" parent="WIyWlLk6GJQsqaUBKTNV-1">
          <mxGeometry x="420" y="280" width="210" height="112" as="geometry" />
        </mxCell>
        <mxCell id="gi6Sf2nISazvm_jhypKA-9" value="+ dataStore: string" style="text;strokeColor=none;fillColor=none;align=left;verticalAlign=top;spacingLeft=4;spacingRight=4;overflow=hidden;rotatable=0;points=[[0,0.5],[1,0.5]];portConstraint=eastwest;" vertex="1" parent="gi6Sf2nISazvm_jhypKA-8">
          <mxGeometry y="26" width="210" height="26" as="geometry" />
        </mxCell>
        <mxCell id="gi6Sf2nISazvm_jhypKA-10" value="" style="line;strokeWidth=1;fillColor=none;align=left;verticalAlign=middle;spacingTop=-1;spacingLeft=3;spacingRight=3;rotatable=0;labelPosition=right;points=[];portConstraint=eastwest;strokeColor=inherit;" vertex="1" parent="gi6Sf2nISazvm_jhypKA-8">
          <mxGeometry y="52" width="210" height="8" as="geometry" />
        </mxCell>
        <mxCell id="gi6Sf2nISazvm_jhypKA-11" value="+ showStrutureData()&#xa;" style="text;strokeColor=none;fillColor=none;align=left;verticalAlign=top;spacingLeft=4;spacingRight=4;overflow=hidden;rotatable=0;points=[[0,0.5],[1,0.5]];portConstraint=eastwest;" vertex="1" parent="gi6Sf2nISazvm_jhypKA-8">
          <mxGeometry y="60" width="210" height="26" as="geometry" />
        </mxCell>
        <mxCell id="gi6Sf2nISazvm_jhypKA-23" value="+ exportStrutureData()&#xa;" style="text;strokeColor=none;fillColor=none;align=left;verticalAlign=top;spacingLeft=4;spacingRight=4;overflow=hidden;rotatable=0;points=[[0,0.5],[1,0.5]];portConstraint=eastwest;" vertex="1" parent="gi6Sf2nISazvm_jhypKA-8">
          <mxGeometry y="86" width="210" height="26" as="geometry" />
        </mxCell>
      </root>
    </mxGraphModel>
  </diagram>
</mxfile>
